<svg xmlns="http://www.w3.org/2000/svg" fill="none" stroke="currentColor" stroke-width="1.6" stroke-linecap="round" stroke-linejoin="round">
  <symbol id="activity" viewBox="0 0 24 24"><path d="M3 12h4l3-8 4 16 3-8h4"/></symbol>
  <symbol id="plus" viewBox="0 0 24 24"><path d="M12 5v14M5 12h14"/></symbol>
  <symbol id="search" viewBox="0 0 24 24"><circle cx="10.5" cy="10.5" r="6.5"/><path d="m16 16 4 4"/></symbol>
  <symbol id="clock" viewBox="0 0 24 24"><circle cx="12" cy="12" r="9"/><path d="M12 7v5l3 2"/></symbol>
  <symbol id="file" viewBox="0 0 24 24"><path d="M14 3H6a1 1 0 0 0-1 1v16a1 1 0 0 0 1 1h12a1 1 0 0 0 1-1V8zM14 3v5h5M8 12h8M8 16h6"/></symbol>
  <symbol id="chart" viewBox="0 0 24 24"><path d="M4 4v16h16M8 15v-4M12 15V7M16 15v-6"/></symbol>
  <symbol id="logs" viewBox="0 0 24 24"><rect x="3" y="4" width="18" height="16" rx="2"/><path d="m7 9 3 3-3 3M13 15h4"/></symbol>
  <symbol id="server" viewBox="0 0 24 24"><rect x="4" y="3" width="16" height="7" rx="2"/><rect x="4" y="14" width="16" height="7" rx="2"/><path d="M8 6.5h.01M8 17.5h.01M12 6.5h5M12 17.5h5"/></symbol>
  <symbol id="refresh" viewBox="0 0 24 24"><path d="M20 7v5h-5M4 17v-5h5M5.5 8a7 7 0 0 1 11.6-3L20 8M4 16l2.9 3a7 7 0 0 0 11.6-3"/></symbol>
  <symbol id="arrow" viewBox="0 0 24 24"><path d="M5 12h14m-5-5 5 5-5 5"/></symbol>
  <symbol id="external" viewBox="0 0 24 24"><path d="M14 4h6v6m0-6L10 14M10 4H5a1 1 0 0 0-1 1v14a1 1 0 0 0 1 1h14a1 1 0 0 0 1-1v-5"/></symbol>
  <symbol id="chevron" viewBox="0 0 24 24"><path d="m9 5 7 7-7 7"/></symbol>
  <symbol id="menu" viewBox="0 0 24 24"><path d="M4 6h16M4 12h16M4 18h16"/></symbol>
  <symbol id="close" viewBox="0 0 24 24"><path d="m6 6 12 12M6 18 18 6"/></symbol>
  <symbol id="check" viewBox="0 0 24 24"><path d="m5 12 4 4L19 6"/></symbol>
</svg>
